<svg width="200" height="48" viewBox="0 0 200 48" fill="none" xmlns="http://www.w3.org/2000/svg">
  <!-- Tuning Fork Circle -->
  <circle cx="24" cy="24" r="22" stroke="#E60012" stroke-width="2" fill="none"/>
  <circle cx="24" cy="24" r="18" stroke="#C0C0C0" stroke-width="1" fill="none"/>

  <!-- Three Tuning Forks -->
  <g fill="#E60012">
    <!-- Center vertical fork -->
    <path d="M24 6 L24 18 L22 18 L22 42 L26 42 L26 18 L24 18 Z"/>

    <!-- Left fork -->
    <path d="M24 24 L10 10 L12 8 L24 20 Z" transform="rotate(-30 24 24)"/>
    <path d="M14 14 L8 20 L10 22 L16 16 Z"/>

    <!-- Right fork -->
    <path d="M24 24 L38 10 L36 8 L24 20 Z" transform="rotate(30 24 24)"/>
    <path d="M34 14 L40 20 L38 22 L32 16 Z"/>
  </g>

  <!-- YAMAHA Text -->
  <text x="56" y="32" font-family="Arial Black, Arial, sans-serif" font-weight="900" font-size="28" fill="#E60012">YAMAHA</text>
</svg>
